#!OML:ASF F:\VICON\USERDATA\INSTALL\rory3\rory3.ASF
:FULLY-SPECIFIED
:DEGREES
2672
root -13.4867 17.6267 12.7229 901.502 12.0392 -1259.95
lowerback 12.0021 2.98033 0.927535
upperback 0.316778 4.10564 -1.01431
thorax -6.25184 2.00334 -2.29354
lowerneck -22.1743 -6.57156 -11.2995
upperneck 33.3678 -6.11886 6.92925
head 16.334 -2.4165 3.8896
rclavicle -3.30728e-014 9.93923e-015
rhumerus -33.1379 -6.35492 -87.6019
rradius 30.3797
rwrist 6.70665
rhand -15.619 8.50473
rfingers 7.12502
rthumb 10.5677 -21.2096
lclavicle -3.30728e-014 9.93923e-015
lhumerus -41.8836 14.8546 76.9921
lradius 24.7725
lwrist -12.1693
lhand -14.6994 28.2238
lfingers 7.12502
lthumb 11.4547 57.8909
rfemur 15.9605 0.722696 24.5452
rtibia 6.24512
rfoot -13.7439 -8.45194
rtoes -7.8994
lfemur -24.8974 -2.50041 -18.3064
ltibia 21.5976
lfoot -4.36364 -2.37316
ltoes -11.6566
2673
root -13.4885 17.6356 12.6205 901.408 12.1233 -1260.21
lowerback 12.0103 2.97505 0.752769
upperback 0.363392 4.07486 -1.06801
thorax -6.21649 1.99502 -2.24578
lowerneck -22.2251 -6.54102 -11.2532
upperneck 33.3667 -6.10317 6.96486
head 16.3421 -2.39903 3.90046
rclavicle 4.12602e-014 -1.66979e-014
rhumerus -33.2573 -6.48857 -87.4165
rradius 30.1375
rwrist 6.547
rhand -15.6064 8.21427
rfingers 7.12502
rthumb 10.5799 -21.4994
lclavicle 4.12602e-014 -1.66979e-014
lhumerus -41.8133 14.8362 77.0576
lradius 24.7635
lwrist -12.024
lhand -15.089 27.6769
lfingers 7.12502
lthumb 11.079 57.3645
rfemur 15.9443 0.880732 24.1713
rtibia 7.02755
rfoot -13.7834 -8.41213
rtoes -9.36438
lfemur -24.5852 -2.30584 -18.7006
ltibia 21.6145
lfoot -3.28954 -2.42817
ltoes -12.7262
2674
root -13.4922 17.6475 12.5103 901.332 12.2769 -1260.53
lowerback 12.0007 2.98497 0.514794
upperback 0.378453 4.053 -1.14691
thorax -6.20662 1.99147 -2.19077
lowerneck -22.3447 -6.55601 -11.1559
upperneck 33.4468 -6.10761 6.83854
head 16.4003 -2.40589 3.82858
rclavicle 8.26199e-015 1.78906e-015
rhumerus -33.3712 -6.56536 -87.2142
rradius 29.825
rwrist 6.56239
rhand -15.6961 8.09629
rfingers 7.12502
rthumb 10.4933 -21.6218
lclavicle 8.26199e-015 1.78906e-015
lhumerus -41.8559 14.8195 77.1073
lradius 24.8702
lwrist -11.9952
lhand -15.1152 27.4549
lfingers 7.12502
lthumb 11.0536 57.1438
rfemur 15.7722 1.11479 23.6974
rtibia 8.08984
rfoot -13.9462 -8.35079
rtoes -10.5456
lfemur -24.227 -2.32358 -19.1112
ltibia 21.5779
lfoot -2.57148 -2.48565
ltoes -12.8251
2675
root -13.4943 17.6586 12.4014 901.252 12.4272 -1260.71
lowerback 12.0398 3.00243 0.382903
upperback 0.378786 4.05837 -1.15209
thorax -6.2367 1.99764 -2.12603
lowerneck -22.3356 -6.58605 -11.1805
upperneck 33.4858 -6.1276 6.80455
head 16.4205 -2.42155 3.81534
rclavicle 5.88651e-014 -1.70955e-014
rhumerus -33.514 -6.85119 -86.8645
rradius 29.4582
rwrist 6.79601
rhand -15.87 8.165
rfingers 7.12502
rthumb 10.3256 -21.5615
lclavicle 5.88651e-014 -1.70955e-014
lhumerus -41.8753 14.8068 77.2207
lradius 24.9708
lwrist -11.8199
lhand -15.1083 27.5807
lfingers 7.12502
lthumb 11.0603 57.2693
rfemur 15.4672 1.33602 23.4079
rtibia 9.44822
rfoot -14.1668 -8.32125
rtoes -11.1905
lfemur -23.8083 -2.48346 -19.328
ltibia 21.4558
lfoot -2.11627 -2.70655
ltoes -10.9299
2676
root -13.4937 17.6681 12.2936 901.14 12.5092 -1260.84
lowerback 12.0885 2.99116 0.264402
upperback 0.401286 4.02958 -1.13563
thorax -6.25052 1.98771 -2.03999
lowerneck -22.19 -6.55736 -11.164
upperneck 33.3921 -6.11172 6.81138
head 16.3362 -2.41427 3.81522
rclavicle 6.79968e-014 -7.55382e-015
rhumerus -33.6017 -7.3978 -86.4402
rradius 28.9754
rwrist 7.18257
rhand -15.9703 8.38515
rfingers 7.12502
rthumb 10.2288 -21.3462
lclavicle 6.79968e-014 -7.55382e-015
lhumerus -41.822 14.8785 77.281
lradius 25.0131
lwrist -11.62
lhand -15.1667 27.5469
lfingers 7.12502
lthumb 11.004 57.2385
rfemur 15.1645 1.48315 23.1884
rtibia 10.8548
rfoot -14.2527 -8.38665
rtoes -10.9991
lfemur -23.3611 -2.42291 -19.563
ltibia 21.3655
lfoot -1.77325 -3.52038
ltoes -8.95294
2677
root -13.4928 17.6791 12.185 901.086 12.474 -1261.05
lowerback 12.0614 2.95176 0.105624
upperback 0.393176 3.9542 -1.15684
thorax -6.25551 1.95511 -1.95941
lowerneck -22.0187 -6.52929 -11.1703
upperneck 33.2993 -6.08694 6.81587
head 16.2467 -2.40623 3.82024
rclavicle -4.06142e-014 1.32192e-014
rhumerus -33.8541 -7.8107 -86.0333
rradius 28.6661
rwrist 7.44365
rhand -16.0113 8.61777
rfingers 7.12502
rthumb 10.1893 -21.1155
lclavicle -4.06142e-014 1.32192e-014
lhumerus -41.7995 14.9609 77.2828
lradius 25.046
lwrist -11.523
lhand -15.037 27.6788
lfingers 7.12502
lthumb 11.129 57.3637
rfemur 14.8002 1.30493 22.8216
rtibia 12.2552
rfoot -14.1255 -8.23167
rtoes -11.4576
lfemur -23.0193 -2.35016 -19.9044
ltibia 21.3649
lfoot -1.655 -4.95081
ltoes -9.25734
2678
root -13.4934 17.6913 12.0716 901.092 12.3855 -1261.17
lowerback 11.9331 2.9173 0.104811
upperback 0.404294 3.90724 -1.18393
thorax -6.17135 1.93301 -1.97082
lowerneck -21.9314 -6.54822 -11.1435
upperneck 33.2435 -6.12703 6.78721
head 16.2009 -2.42508 3.79205
rclavicle -9.93923e-015 7.55382e-015
rhumerus -34.1576 -8.11123 -85.6743
rradius 28.5497
rwrist 7.49229
rhand -16.0168 8.54139
rfingers 7.12502
rthumb 10.1839 -21.1921
lclavicle -9.93923e-015 7.55382e-015
lhumerus -41.7139 14.8552 77.3623
lradius 25.0804
lwrist -11.3578
lhand -15.1237 27.7718
lfingers 7.12502
lthumb 11.0455 57.4612
rfemur 14.3836 1.30649 22.6302
rtibia 13.7523
rfoot -13.9743 -8.26875
rtoes -12.9323
lfemur -22.6876 -2.44369 -20.1232
ltibia 21.4039
lfoot -1.64177 -6.03641
ltoes -6.28631
2679
root -13.4948 17.7048 11.9562 901.061 12.4325 -1261.18
lowerback 11.8768 2.92007 0.148162
upperback 0.434622 3.91907 -1.15932
thorax -6.10622 1.93906 -1.96635
lowerneck -21.8445 -6.59681 -11.1277
upperneck 33.1874 -6.21112 6.7655
head 16.1615 -2.46314 3.75955
rclavicle -7.91411e-015 -4.52235e-015
rhumerus -34.3709 -8.46331 -85.2797
rradius 28.3891
rwrist 7.52466
rhand -15.9534 8.35705
rfingers 7.12502
rthumb 10.2451 -21.3734
lclavicle -7.91411e-015 -4.52235e-015
lhumerus -41.5666 14.858 77.4583
lradius 25.0744
lwrist -11.2309
lhand -15.3045 27.8491
lfingers 7.12502
lthumb 10.871 57.5477
rfemur 13.9922 1.50278 22.5484
rtibia 15.3187
rfoot -13.8956 -8.20701
rtoes -13.9722
lfemur -22.2604 -2.54388 -20.221
ltibia 21.4569
lfoot -1.77119 -6.62217
ltoes -3.91211
2680
root -13.4977 17.7183 11.8461 900.983 12.4383 -1261.22
lowerback 11.9299 2.90577 0.11764
upperback 0.472039 3.90096 -1.09485
thorax -6.10351 1.93252 -1.88055
lowerneck -21.819 -6.65394 -11.2751
upperneck 33.2064 -6.28842 6.90589
head 16.1896 -2.49301 3.83301
rclavicle 1.58096e-014 3.55328e-015
rhumerus -34.515 -8.99718 -84.7549
rradius 28.1063
rwrist 7.75223
rhand -15.8397 8.1423
rfingers 7.12502
rthumb 10.3548 -21.5828
lclavicle 1.58096e-014 3.55328e-015
lhumerus -41.4047 15.1596 77.4692
lradius 25.0423
lwrist -11.5
lhand -15.2483 27.8169
lfingers 7.12502
lthumb 10.9253 57.5126
rfemur 13.5978 1.72869 22.4408
rtibia 16.9139
rfoot -13.6948 -7.97481
rtoes -13.8015
lfemur -21.81 -2.72885 -20.3494
ltibia 21.5128
lfoot -1.91581 -6.86368
ltoes -4.24348
2681
root -13.5014 17.7313 11.7344 900.906 12.2869 -1261.32
lowerback 11.9195 2.81818 0.0615054
upperback 0.551662 3.78424 -1.03344
thorax -6.02453 1.88023 -1.76157
lowerneck -21.9947 -6.66586 -11.3261
upperneck 33.3169 -6.27448 6.93113
head 16.2883 -2.488 3.86012
rclavicle 6.79828e-016 5.05037e-015
rhumerus -34.6228 -9.47815 -84.2319
rradius 27.9162
rwrist 8.02025
rhand -15.7814 7.93611
rfingers 7.12502
rthumb 10.411 -21.7861
lclavicle 6.79828e-016 5.05037e-015
lhumerus -41.2845 15.4452 77.5029
lradius 25.2165
lwrist -11.7866
lhand -14.9843 27.9316
lfingers 7.12502
lthumb 11.1799 57.6138
rfemur 13.1289 1.85656 22.3053
rtibia 18.5917
rfoot -13.2496 -7.85405
rtoes -13.1139
lfemur -21.3309 -2.99583 -20.55
ltibia 21.4969
lfoot -2.12268 -6.7871
ltoes -4.64856
2682
root -13.5037 17.748 11.6157 900.778 12.1948 -1261.47
lowerback 11.8861 2.75688 -0.047636
upperback 0.60581 3.69178 -1.02624
thorax -5.95836 1.8401 -1.67359
lowerneck -21.9724 -6.6332 -11.2513
upperneck 33.3101 -6.24539 6.89962
head 16.2701 -2.47048 3.83923
rclavicle 4.1223e-014 -7.3923e-015
rhumerus -34.9368 -9.96419 -83.7404
rradius 27.9029
rwrist 8.28661
rhand -15.789 7.95879
rfingers 7.12502
rthumb 10.4037 -21.7638
lclavicle 4.1223e-014 -7.3923e-015
lhumerus -41.295 15.3272 77.665
lradius 25.6079
lwrist -11.5985
lhand -14.7076 28.0878
lfingers 7.12502
lthumb 11.4468 57.7553
rfemur 12.6226 1.89634 22.0462
rtibia 20.3801
rfoot -12.6209 -7.71787
rtoes -13.5081
lfemur -20.7406 -3.10876 -20.8542
ltibia 21.3952
lfoot -2.38755 -6.56166
ltoes -4.15014
2683
root -13.5032 17.7661 11.4951 900.586 12.2546 -1261.62
lowerback 11.8839 2.76091 -0.159315
upperback 0.670028 3.68601 -1.03696
thorax -5.89573 1.8427 -1.61892
lowerneck -21.8644 -6.61922 -11.157
upperneck 33.2847 -6.27523 6.91564
head 16.2314 -2.46696 3.82422
rclavicle -4.50372e-016 1.39149e-015
rhumerus -35.322 -10.5139 -83.2633
rradius 27.9147
rwrist 8.3695
rhand -15.8398 8.08044
rfingers 7.12502
rthumb 10.3547 -21.6446
lclavicle -4.50372e-016 1.39149e-015
lhumerus -41.1884 15.005 77.9026
lradius 25.9144
lwrist -11.281
lhand -13.9255 29.25
lfingers 7.12502
lthumb 12.2009 58.8741
rfemur 12.0985 1.93454 21.7559
rtibia 22.2798
rfoot -12.0177 -7.36362
rtoes -13.8159
lfemur -20.067 -2.96934 -21.143
ltibia 21.2447
lfoot -2.62423 -6.47554
ltoes -3.74374
2684
root -13.5033 17.7818 11.3803 900.398 12.3563 -1261.69
lowerback 11.8884 2.75906 -0.221835
upperback 0.800496 3.68485 -1.00763
thorax -5.76633 1.84873 -1.54846
lowerneck -21.9669 -6.65599 -11.1884
upperneck 33.3301 -6.34044 6.9971
head 16.292 -2.4858 3.85371
rclavicle -4.5913e-014 9.11925e-015
rhumerus -35.492 -10.7951 -82.8982
rradius 27.8984
rwrist 8.12227
rhand -15.931 8.02946
rfingers 7.12502
rthumb 10.2667 -21.7
lclavicle -4.5913e-014 9.11925e-015
lhumerus -40.7976 14.6805 78.2428
lradius 25.9875
lwrist -11.0284
lhand -13.5398 30.2788
lfingers 7.12502
lthumb 12.5728 59.8805
rfemur 11.4895 2.02585 21.5435
rtibia 24.2765
rfoot -11.4007 -6.96057
rtoes -13.578
lfemur -19.3825 -2.77283 -21.3606
ltibia 21.0331
lfoot -2.64909 -6.50708
ltoes -3.48228
